<svg width="925" height="778" viewBox="0 0 925 778" fill="none" xmlns="http://www.w3.org/2000/svg">
<g clip-path="url(#clip0_1_60)">
<g clip-path="url(#clip1_1_60)">
<g clip-path="url(#clip2_1_60)">
<g clip-path="url(#clip3_1_60)">
<g clip-path="url(#clip4_1_60)">
<g clip-path="url(#clip5_1_60)">
<path d="M42.9595 418.469C42.9595 403.367 45.7222 384.274 51.2475 361.19C51.6159 359.962 51.2475 359.41 50.1425 359.532C49.283 359.655 48.4849 360.023 47.7482 360.637C42.3456 365.18 36.3905 373.591 29.8829 385.87C23.3753 398.148 18.1569 409.352 14.2278 419.482C10.2986 429.612 8.33406 435.536 8.33406 437.255C8.33406 438.729 7.41317 439.466 5.57139 439.466C1.88783 439.466 0.046051 434.616 0.046051 424.916C0.046051 406.498 1.88783 389.891 5.57139 375.095C9.25495 360.3 13.7366 352.902 19.0164 352.902C21.3493 352.902 22.5158 354.191 22.5158 356.77C16.8676 374.574 12.8157 392.869 10.36 411.655H12.0176C28.2253 371.136 43.1437 350.876 56.7729 350.876C62.6666 350.876 65.6134 353.761 65.6134 359.532C59.8425 376.722 55.6678 393.667 53.0893 410.365H54.5627C58.6147 401.771 62.6973 393.943 66.8106 386.883C70.9239 379.823 75.7432 373.254 81.2686 367.176C86.7939 361.098 91.7667 358.059 96.187 358.059C102.081 358.059 105.028 360.883 105.028 366.531C98.6427 387.773 95.4503 408.462 95.4503 428.599C95.4503 441.614 97.4148 448.122 101.344 448.122C102.695 448.122 104.045 447.539 105.396 446.372C106.747 445.206 107.667 444.623 108.159 444.623C109.878 444.623 109.816 445.973 107.974 448.674C107.483 449.534 106.409 450.7 104.751 452.174C103.094 453.647 101.467 454.384 99.8705 454.384C95.0819 454.384 91.3676 451.038 88.7278 444.346C86.0879 437.655 84.7679 428.967 84.7679 418.285C84.7679 399.499 86.7325 382.984 90.6616 368.741C90.9072 367.882 90.6002 367.452 89.7407 367.452C89.004 367.575 88.2673 367.943 87.5306 368.557C80.5318 374.574 72.735 385.716 64.14 401.985C55.545 418.254 51.2475 427.862 51.2475 430.809C51.2475 432.283 50.2653 433.019 48.3007 433.019C44.7399 433.019 42.9595 428.169 42.9595 418.469ZM135.785 440.939C125.717 440.939 120.683 433.019 120.683 417.18C120.683 407.726 123.016 397.35 127.681 386.054C134.189 370.215 142.723 359.41 153.282 353.639C157.825 351.183 162.061 349.955 165.99 349.955C169.92 349.955 173.02 350.815 175.291 352.534C177.563 354.253 179.006 355.972 179.62 357.691L180.725 360.085C180.356 362.172 179.313 363.216 177.594 363.216C175.629 363.216 174.493 362.755 174.186 361.835C173.879 360.914 173.542 360.116 173.173 359.44C172.805 358.765 171.946 357.844 170.595 356.678C169.244 355.511 167.709 354.928 165.99 354.928C158.009 354.928 150.765 362.111 144.257 376.477C136.89 393.053 133.207 408.646 133.207 423.258C133.207 430.625 134.68 434.309 137.627 434.309C139.96 434.309 143.244 431.699 147.481 426.481C151.717 421.263 156.168 414.724 160.833 406.866C168.937 393.36 175.506 381.634 180.541 371.688C184.715 362.848 189.013 358.427 193.433 358.427C195.766 358.427 196.932 359.839 196.932 362.663C195.827 364.996 194.415 368.311 192.696 372.609C190.977 376.906 188.706 385.44 185.882 398.21C183.058 410.979 181.646 423.688 181.646 436.335C181.646 448.981 183.549 455.305 187.355 455.305C188.829 455.305 190.179 454.66 191.407 453.371C192.635 452.082 193.74 450.148 194.722 447.569C195.091 446.219 195.95 445.543 197.301 445.543C197.792 445.543 198.16 445.728 198.406 446.096C198.651 446.464 198.651 447.078 198.406 447.938C198.16 448.797 197.73 449.994 197.117 451.529C196.503 453.064 195.183 455.121 193.157 457.699C191.131 460.278 189.013 461.567 186.803 461.567C181.646 461.567 177.686 458.19 174.923 451.437C172.16 444.684 170.779 436.703 170.779 427.494C170.779 418.285 171.454 409.445 172.805 400.972H170.963C155.369 427.617 143.644 440.939 135.785 440.939ZM257.159 425.652C257.65 424.547 258.693 423.995 260.29 423.995C261.886 423.995 262.684 424.363 262.684 425.1V425.652C262.193 427.003 260.842 429.182 258.632 432.191C256.422 435.199 254.304 437.624 252.278 439.466C250.252 441.307 247.643 442.996 244.45 444.53C241.258 446.065 238.004 446.833 234.689 446.833C221.796 446.833 213.57 440.632 210.009 428.231C206.817 416.689 208.106 403.551 213.877 388.817C219.648 374.082 227.69 363.523 238.004 357.138C243.407 353.823 248.564 352.165 253.475 352.165C258.386 352.165 261.947 353.577 264.157 356.401C267.473 345.719 271.709 340.378 276.866 340.378C278.799 340.378 279.766 341.422 279.766 343.509C278.815 344.982 277.572 346.916 276.037 349.31C274.502 351.705 272.445 355.972 269.867 362.111C267.258 368.25 265.953 373.653 265.953 378.318C265.953 379.915 265.293 380.713 263.973 380.713C262.377 380.713 261.456 379.301 261.21 376.477C261.21 371.688 261.64 367.206 262.5 363.032C261.732 359.225 259.031 357.322 254.396 357.322C245.555 357.322 237.789 364.014 231.097 377.398C224.406 390.781 221.06 403.858 221.06 416.628C221.06 432.59 226.094 440.571 236.162 440.571C240.091 440.571 243.806 439.343 247.305 436.887C250.804 434.431 253.291 431.976 254.764 429.52L257.159 425.652ZM344.229 454.752C345.702 454.752 347.083 454.108 348.373 452.818C349.662 451.529 350.859 449.534 351.964 446.833C352.087 445.728 352.824 445.175 354.174 445.175C355.525 445.175 356.047 445.728 355.74 446.833C355.433 447.938 354.942 449.288 354.266 450.885C353.591 452.481 352.179 454.599 350.03 457.239C347.882 459.879 345.702 461.199 343.492 461.199C338.581 461.199 334.774 458.129 332.073 451.99C329.249 445.85 327.837 438.268 327.837 429.244C327.837 420.219 328.512 410.918 329.863 401.341H328.205C313.348 427.248 301.929 440.202 293.948 440.202C284.494 440.202 279.766 432.989 279.766 418.561C279.766 404.134 282.836 389.738 288.975 375.372C295.728 359.532 301.684 351.613 306.841 351.613C309.051 351.613 310.156 352.963 310.156 355.665C304.999 369.294 300.578 382.555 296.895 395.447C293.211 408.34 291.37 417.947 291.37 424.271C291.37 430.594 292.843 433.756 295.79 433.756C297.877 433.756 300.978 431.239 305.091 426.205C309.204 421.171 313.41 415.031 317.707 407.787C326.916 392.193 333.945 378.932 338.795 368.005C343.645 357.077 348.649 351.613 353.806 351.613C356.262 351.613 357.49 352.963 357.49 355.665C349.631 371.258 344.045 389.86 340.729 411.471C339.379 420.066 338.703 428.476 338.703 436.703C338.703 448.736 340.545 454.752 344.229 454.752ZM372.04 425.284C372.04 407.112 373.912 390.904 377.657 376.661C381.402 362.418 386.16 355.296 391.931 355.296C394.755 355.296 396.167 356.831 396.167 359.901C394.939 363.093 393.404 367.329 391.562 372.609C389.721 377.889 387.296 387.435 384.287 401.249C381.279 415.062 379.775 427.371 379.775 438.176C379.775 439.895 378.854 440.755 377.012 440.755C373.697 440.755 372.04 435.598 372.04 425.284ZM398.93 334.852L396.719 337.984C394.141 337.984 392.852 335.528 392.852 330.616C392.852 327.67 393.65 324.569 395.246 321.315C396.842 318.062 399.114 316.435 402.061 316.435C404.516 316.435 405.744 317.847 405.744 320.671C405.744 323.495 403.473 328.222 398.93 334.852ZM420.478 434.677C420.478 443.272 423.241 447.569 428.766 447.569C433.923 447.569 438.743 443.333 443.224 434.861C447.706 426.389 449.947 415.707 449.947 402.814C449.947 396.552 448.811 387.712 446.54 376.293C444.268 364.874 443.132 357.414 443.132 353.915C443.132 350.416 443.255 348.113 443.501 347.008C441.904 349.587 437.3 358.151 429.687 372.701C422.075 387.251 415.321 398.762 409.428 407.234C408.937 407.726 408.261 407.879 407.402 407.695C406.542 407.511 405.836 407.142 405.284 406.59C404.731 406.037 404.455 405.638 404.455 405.393C404.455 405.147 404.516 404.963 404.639 404.84C410.41 396.491 417.133 384.98 424.807 370.307C432.481 355.634 438.896 344.675 444.053 337.431C449.21 330.187 454.306 326.564 459.34 326.564C461.918 326.564 463.208 327.67 463.208 329.88C463.208 331.353 462.164 333.318 460.077 335.773C453.446 343.263 450.131 350.937 450.131 358.796C450.131 363.461 451.911 372.456 455.472 385.778C459.033 399.1 460.813 408.769 460.813 414.786C460.813 425.591 457.805 434.769 451.789 442.32C445.772 449.872 438.958 453.647 431.345 453.647C420.54 453.647 415.137 447.447 415.137 435.045C415.137 425.714 417.992 415.952 423.701 405.761C429.411 395.57 435.151 388.694 440.922 385.133C442.027 384.396 442.733 384.826 443.04 386.422C443.347 388.019 443.132 389.062 442.396 389.553C435.888 393.237 430.24 401.095 425.451 413.128C422.136 421.6 420.478 428.783 420.478 434.677ZM481.994 425.284C481.994 407.112 483.866 390.904 487.611 376.661C491.356 362.418 496.114 355.296 501.885 355.296C504.709 355.296 506.121 356.831 506.121 359.901C504.863 363.093 503.328 367.329 501.517 372.609C499.644 377.889 497.219 387.435 494.242 401.249C491.233 415.062 489.729 427.371 489.729 438.176C489.729 439.895 488.808 440.755 486.967 440.755C483.651 440.755 481.994 435.598 481.994 425.284ZM508.838 334.852L506.674 337.984C504.095 337.984 502.806 335.528 502.806 330.616C502.806 327.67 503.604 324.569 505.2 321.315C506.766 318.062 509.037 316.435 512.015 316.435C514.471 316.435 515.698 317.847 515.698 320.671C515.698 323.495 513.412 328.222 508.838 334.852ZM529.834 411.102H531.492C547.331 371.934 562.741 352.349 577.72 352.349C583.982 352.349 587.113 355.358 587.113 361.374C586.254 364.198 585.149 367.912 583.798 372.517C582.448 377.121 580.637 385.379 578.365 397.289C576.093 409.199 574.958 419.636 574.958 428.599C574.958 441.614 576.861 448.122 580.667 448.122C582.141 448.122 583.553 447.539 584.903 446.372C586.254 445.206 587.175 444.623 587.666 444.623C589.385 444.623 589.385 445.973 587.666 448.674C587.052 449.534 585.916 450.7 584.259 452.174C582.601 453.647 580.913 454.384 579.194 454.384C574.528 454.384 570.875 451.038 568.235 444.346C565.595 437.655 564.275 428.967 564.275 418.285C564.275 401.341 566.915 382.739 572.195 362.479C572.686 360.883 572.195 360.085 570.722 360.085C569.739 360.085 568.634 360.576 567.406 361.558C561.513 366.715 555.312 375.249 548.804 387.159C542.297 399.069 537.201 409.721 533.518 419.114C529.834 428.507 527.992 433.971 527.992 435.506C527.992 437.041 527.133 437.808 525.414 437.808C521.485 437.808 519.52 432.958 519.52 423.258C519.52 404.963 521.393 388.387 525.138 373.53C528.882 358.673 533.395 351.244 538.675 351.244C540.885 351.244 541.99 352.595 541.99 355.296C536.342 373.591 532.29 392.193 529.834 411.102ZM647.892 351.613C657.224 351.613 661.89 357.077 661.89 368.005C661.89 374.267 659.802 380.836 655.628 387.712C648.506 399.131 639.052 404.84 627.264 404.84C625.422 404.84 623.888 404.533 622.66 403.919C621.432 403.305 620.511 402.384 619.897 401.157C628.615 401.157 636.596 396.122 643.84 386.054C649.734 377.95 652.681 370.522 652.681 363.768C652.681 358.734 650.655 356.217 646.603 356.217C638.499 356.217 630.948 362.541 623.949 375.187C616.459 388.939 612.714 403.06 612.714 417.548C612.714 429.827 616.214 437.194 623.212 439.65C624.563 440.141 626.282 440.386 628.369 440.386C630.457 440.386 632.667 439.865 635 438.821C637.333 437.777 639.297 436.519 640.893 435.045C644.086 432.098 646.726 428.845 648.813 425.284C649.304 424.302 650.225 423.81 651.576 423.81C653.786 423.81 654.83 424.179 654.707 424.916C654.338 426.266 652.957 428.538 650.563 431.73C648.168 434.923 645.958 437.47 643.932 439.374C641.906 441.277 639.267 442.996 636.013 444.53C632.759 446.065 629.474 446.833 626.159 446.833C613.144 446.833 604.856 440.693 601.295 428.415C600.19 424.24 599.638 419.943 599.638 415.522C599.638 407.296 601.541 398.333 605.347 388.632C611.364 373.898 619.652 363.277 630.211 356.77C635.982 353.332 641.876 351.613 647.892 351.613Z" fill="#8BC53F"/>
</g>
</g>
</g>
</g>
<g clip-path="url(#clip6_1_60)">
<g clip-path="url(#clip7_1_60)">
<path d="M749.29 479.968C749.248 485.083 753.35 489.245 758.452 489.287C763.563 489.329 767.727 485.233 767.769 480.127L769.287 298.801C769.362 289.836 763.533 288.831 759.453 288.799C755.357 288.765 747.786 300.258 746.069 310.862C744.336 321.456 734.089 376.097 750.329 386.854L749.29 479.968Z" fill="#5D9943"/>
<path d="M706.002 479.609L707.242 362.811C700.595 362.757 697.325 354.84 696.198 349.111L700.222 288.714L705.665 337.466L710.766 288.799L716.203 337.554L722.469 288.897L726.743 337.643L733.001 288.985L736.004 349.444C734.797 355.153 731.864 363.015 725.201 362.961L724.493 479.762C724.451 484.872 720.269 488.968 715.168 488.924C710.066 488.882 705.962 484.72 706.002 479.609Z" fill="#5D9943"/>
</g>
</g>
</g>
</g>
<path d="M535.889 0C750.727 0 924.889 174.163 924.889 389.001C924.889 603.839 750.727 778.002 535.889 778.002C361.971 778.002 214.711 663.87 164.922 506.419H171.792C221.349 660.2 365.625 771.459 535.889 771.459C747.114 771.459 918.346 600.226 918.343 389.001C918.343 177.776 747.11 6.54315 535.889 6.54315C365.625 6.54315 221.349 117.802 171.792 271.583H164.922C214.711 114.132 361.971 0 535.889 0Z" fill="#8BC53F"/>
<defs>
<clipPath id="clip0_1_60">
<rect width="769.288" height="200.573" fill="white" transform="translate(0 288.714)"/>
</clipPath>
<clipPath id="clip1_1_60">
<rect width="769.288" height="200.573" fill="white" transform="translate(0 288.714)"/>
</clipPath>
<clipPath id="clip2_1_60">
<rect width="661.936" height="145.132" fill="white" transform="translate(0 316.435)"/>
</clipPath>
<clipPath id="clip3_1_60">
<rect width="661.936" height="145.132" fill="white" transform="translate(0 316.435)"/>
</clipPath>
<clipPath id="clip4_1_60">
<rect width="661.936" height="145.132" fill="white" transform="translate(0 316.435)"/>
</clipPath>
<clipPath id="clip5_1_60">
<rect width="661.936" height="145.132" fill="white" transform="translate(0 316.435)"/>
</clipPath>
<clipPath id="clip6_1_60">
<rect width="73.09" height="200.573" fill="white" transform="translate(696.198 288.714)"/>
</clipPath>
<clipPath id="clip7_1_60">
<rect width="73.09" height="200.573" fill="white" transform="translate(696.198 288.714)"/>
</clipPath>
</defs>
</svg>
