<svg width="1078" height="906" viewBox="0 0 1078 906" fill="none" xmlns="http://www.w3.org/2000/svg">
<g clip-path="url(#clip0_3_35)">
<g clip-path="url(#clip1_3_35)">
<g clip-path="url(#clip2_3_35)">
<g clip-path="url(#clip3_3_35)">
<g clip-path="url(#clip4_3_35)">
<g clip-path="url(#clip5_3_35)">
<g clip-path="url(#clip6_3_35)">
<path d="M154.38 509.828C154.38 527.515 158.413 536.359 166.479 536.359C171.682 536.359 176.041 532.522 179.553 524.849C180.334 523.549 181.505 523.159 183.066 523.679C183.716 523.939 183.879 524.492 183.554 525.337C183.229 526.182 182.741 527.223 182.09 528.458C181.44 529.694 180.269 531.612 178.578 534.213C174.675 539.935 170.186 542.796 165.113 542.796C149.371 542.796 141.5 530.311 141.5 505.342C141.5 477.251 151.452 433.359 171.357 373.666C171.878 372.105 171.585 371.325 170.479 371.325C169.373 371.325 168.17 371.91 166.869 373.081C159.974 379.583 152.916 388.296 145.696 399.221C138.475 410.145 132.133 421.199 126.669 432.384C117.042 451.761 109.952 467.887 105.398 480.762C99.2838 498.839 93.8848 507.878 89.2013 507.878C86.4693 507.878 85.1033 506.512 85.1033 503.781C85.1033 503.651 85.1683 503.521 85.2984 503.391C101.56 444.478 109.692 407.479 109.692 392.393C109.692 385.63 108.195 382.249 105.203 382.249C99.2188 382.249 89.7868 393.401 76.9072 415.705C64.0277 438.008 54.3355 460.344 47.8307 482.713C40.0249 509.633 33.1298 523.093 27.1453 523.093C24.4133 523.093 23.0473 521.663 23.0473 518.802C23.1774 518.412 23.5677 517.306 24.2181 515.486C24.8686 513.665 25.7143 510.966 26.755 507.39C27.7958 503.814 29.4545 498.156 31.7312 490.418C34.0079 482.68 35.9268 475.17 37.488 467.887C42.6918 443.698 45.2938 426.271 45.2938 415.607C45.2938 409.885 44.9035 404.195 44.1229 398.538C43.3423 392.881 41.3909 388.296 38.2686 384.785C35.1463 381.274 31.0482 379.518 25.9745 379.518C18.0386 379.518 12.4444 382.834 9.19201 389.467C8.15124 391.808 7.63085 393.791 7.63085 395.417C7.63085 397.042 8.08619 397.855 8.99686 397.855C8.60658 399.676 7.04542 400.586 4.31339 400.586C1.58137 400.586 0.215355 398.831 0.215355 395.319C0.215355 389.987 2.91486 385.24 8.31386 381.079C13.7129 376.917 19.8599 374.836 26.755 374.836C33.6501 374.836 39.1467 376.559 43.2448 380.006C47.3428 383.452 50.3025 388.036 52.1238 393.759C55.1161 403.252 56.6122 413.526 56.6122 424.58C56.6122 428.742 56.352 433.034 55.8316 437.455H57.783C78.4684 395.579 95.8362 374.641 109.887 374.641C117.953 374.641 121.986 381.534 121.986 395.319C121.986 401.952 120.49 413.591 117.497 430.238H119.254C143.061 385.37 162.576 362.937 177.797 362.937C183.651 362.937 186.579 366.188 186.579 372.69C182.546 382.704 178.057 396.36 173.114 413.656C160.624 456.443 154.38 488.5 154.38 509.828ZM205.508 514.315C194.84 514.315 189.506 505.927 189.506 489.15C189.506 479.137 191.978 468.147 196.921 456.183C203.816 439.406 212.858 427.962 224.046 421.849C228.86 419.248 233.348 417.948 237.511 417.948C241.674 417.948 244.959 418.858 247.366 420.679C249.773 422.5 251.301 424.32 251.952 426.141L253.123 428.677C252.733 430.888 251.627 431.993 249.805 431.993C247.724 431.993 246.52 431.506 246.195 430.53C245.87 429.555 245.512 428.71 245.122 427.994C244.732 427.279 243.821 426.304 242.39 425.068C240.959 423.833 239.333 423.215 237.511 423.215C229.055 423.215 221.379 430.823 214.484 446.039C206.678 463.596 202.776 480.112 202.776 495.588C202.776 503.391 204.337 507.292 207.459 507.292C209.931 507.292 213.411 504.529 217.899 499.002C222.388 493.475 227.104 486.549 232.047 478.226C240.634 463.921 247.594 451.501 252.928 440.967C257.351 431.603 261.904 426.921 266.588 426.921C269.06 426.921 270.296 428.417 270.296 431.408C269.125 433.879 267.629 437.39 265.807 441.942C263.986 446.494 261.579 455.532 258.587 469.058C255.595 482.583 254.099 496.043 254.099 509.438C254.099 522.833 256.115 529.531 260.148 529.531C261.709 529.531 263.14 528.848 264.441 527.483C265.742 526.117 266.913 524.069 267.954 521.338C268.344 519.907 269.255 519.192 270.686 519.192C271.206 519.192 271.597 519.387 271.857 519.777C272.117 520.167 272.117 520.818 271.857 521.728C271.597 522.638 271.141 523.906 270.491 525.532C269.84 527.158 268.442 529.336 266.295 532.067C264.149 534.798 261.904 536.164 259.563 536.164C254.099 536.164 249.903 532.587 246.976 525.434C244.049 518.282 242.585 509.828 242.585 500.075C242.585 490.321 243.301 480.957 244.732 471.984H242.78C226.258 500.205 213.834 514.315 205.508 514.315ZM334.108 498.124C334.628 496.953 335.734 496.368 337.425 496.368C339.117 496.368 339.962 496.758 339.962 497.539V498.124C339.442 499.554 338.011 501.863 335.669 505.049C333.327 508.235 331.083 510.804 328.937 512.755C326.79 514.705 324.025 516.493 320.643 518.119C317.26 519.745 313.813 520.558 310.3 520.558C296.64 520.558 287.924 513.99 284.151 500.855C280.768 488.63 282.134 474.715 288.249 459.109C294.363 443.503 302.885 432.318 313.813 425.556C319.537 422.045 325.001 420.289 330.205 420.289C335.409 420.289 339.182 421.784 341.523 424.776C345.036 413.461 349.524 407.804 354.988 407.804C357.07 407.804 358.111 408.909 358.111 411.12C357.07 412.681 355.736 414.729 354.11 417.265C352.484 419.801 350.305 424.32 347.573 430.823C344.841 437.325 343.475 443.048 343.475 447.99C343.475 449.68 342.759 450.526 341.328 450.526C339.637 450.526 338.661 449.03 338.401 446.039C338.401 440.967 338.856 436.22 339.767 431.798C338.986 427.767 336.124 425.751 331.181 425.751C321.814 425.751 313.585 432.839 306.495 447.014C299.405 461.19 295.86 475.04 295.86 488.565C295.86 505.472 301.193 513.925 311.861 513.925C316.024 513.925 319.96 512.624 323.668 510.023C327.375 507.422 330.01 504.821 331.571 502.22L334.108 498.124ZM426.363 528.946C427.924 528.946 429.387 528.263 430.753 526.897C432.119 525.532 433.388 523.419 434.559 520.558C434.689 519.387 435.469 518.802 436.9 518.802C438.331 518.802 438.884 519.387 438.559 520.558C438.234 521.728 437.713 523.159 436.998 524.849C436.282 526.54 434.786 528.783 432.51 531.579C430.233 534.375 427.924 535.773 425.582 535.773C420.378 535.773 416.345 532.522 413.483 526.02C410.491 519.517 408.995 511.487 408.995 501.928C408.995 492.369 409.71 482.518 411.141 472.374H409.385C393.643 499.815 381.544 513.535 373.088 513.535C363.071 513.535 358.062 505.894 358.062 490.613C358.062 475.333 361.314 460.084 367.819 444.868C374.974 428.092 381.284 419.704 386.748 419.704C389.09 419.704 390.261 421.134 390.261 423.995C384.797 438.431 380.113 452.476 376.21 466.132C372.307 479.787 370.356 489.963 370.356 496.661C370.356 503.358 371.917 506.707 375.039 506.707C377.251 506.707 380.536 504.041 384.894 498.709C389.253 493.377 393.708 486.875 398.262 479.202C408.019 462.685 415.467 448.64 420.606 437.065C425.745 425.491 431.046 419.704 436.51 419.704C439.112 419.704 440.413 421.134 440.413 423.995C432.087 440.512 426.167 460.214 422.655 483.103C421.224 492.207 420.508 501.115 420.508 509.828C420.508 522.573 422.46 528.946 426.363 528.946ZM455.829 497.734C455.829 478.486 457.813 461.32 461.781 446.234C465.749 431.148 470.79 423.605 476.905 423.605C479.897 423.605 481.393 425.231 481.393 428.482C480.092 431.863 478.466 436.35 476.515 441.942C474.563 447.534 471.994 457.646 468.807 472.276C465.619 486.907 464.025 499.945 464.025 511.389C464.025 513.21 463.05 514.12 461.098 514.12C457.586 514.12 455.829 508.658 455.829 497.734ZM484.321 401.952L481.979 405.268C479.247 405.268 477.881 402.667 477.881 397.465C477.881 394.344 478.726 391.06 480.418 387.614C482.109 384.167 484.516 382.444 487.638 382.444C490.24 382.444 491.541 383.94 491.541 386.931C491.541 389.922 489.134 394.929 484.321 401.952ZM507.152 507.683C507.152 516.786 510.08 521.338 515.934 521.338C521.398 521.338 526.504 516.851 531.253 507.878C536.001 498.904 538.376 487.59 538.376 473.935C538.376 467.302 537.172 457.938 534.765 445.844C532.359 433.749 531.155 425.848 531.155 422.142C531.155 418.436 531.285 415.997 531.546 414.827C529.854 417.558 524.976 426.629 516.91 442.04C508.844 457.451 501.688 469.643 495.444 478.616C494.923 479.137 494.208 479.299 493.297 479.104C492.386 478.909 491.638 478.519 491.053 477.934C490.468 477.348 490.175 476.926 490.175 476.666C490.175 476.405 490.24 476.21 490.37 476.08C496.485 467.237 503.607 455.045 511.738 439.504C519.869 423.963 526.667 412.356 532.131 404.683C537.595 397.01 542.994 393.173 548.328 393.173C551.06 393.173 552.426 394.344 552.426 396.685C552.426 398.245 551.32 400.326 549.109 402.927C542.083 410.86 538.571 418.988 538.571 427.312C538.571 432.253 540.457 441.78 544.23 455.89C548.003 470.001 549.889 480.242 549.889 486.614C549.889 498.059 546.702 507.78 540.327 515.778C533.952 523.776 526.732 527.775 518.666 527.775C507.217 527.775 501.493 521.208 501.493 508.073C501.493 498.189 504.518 487.85 510.567 477.056C516.617 466.262 522.699 458.979 528.813 455.207C529.984 454.427 530.732 454.882 531.058 456.573C531.383 458.263 531.155 459.369 530.375 459.889C523.48 463.791 517.495 472.114 512.421 484.859C508.909 493.832 507.152 501.44 507.152 507.683ZM572.331 497.734C572.331 478.486 574.315 461.32 578.283 446.234C582.251 431.148 587.292 423.605 593.406 423.605C596.399 423.605 597.895 425.231 597.895 428.482C596.594 431.863 594.968 436.35 593.016 441.942C591.065 447.534 588.495 457.646 585.308 472.276C582.121 486.907 580.527 499.945 580.527 511.389C580.527 513.21 579.551 514.12 577.6 514.12C574.087 514.12 572.331 508.658 572.331 497.734ZM600.822 401.952L598.48 405.268C595.748 405.268 594.382 402.667 594.382 397.465C594.382 394.344 595.228 391.06 596.919 387.614C598.61 384.167 601.017 382.444 604.139 382.444C606.741 382.444 608.042 383.94 608.042 386.931C608.042 389.922 605.635 394.929 600.822 401.952ZM623.02 482.713H624.776C641.558 441.227 657.885 420.484 673.757 420.484C680.392 420.484 683.71 423.67 683.71 430.043C682.799 433.034 681.628 436.968 680.197 441.845C678.766 446.722 676.847 455.467 674.44 468.082C672.033 480.697 670.83 491.751 670.83 501.245C670.83 515.03 672.847 521.923 676.879 521.923C678.441 521.923 679.937 521.305 681.368 520.07C682.799 518.834 683.775 518.217 684.295 518.217C686.116 518.217 686.116 519.647 684.295 522.508C683.645 523.419 682.441 524.654 680.685 526.215C678.929 527.775 677.14 528.556 675.318 528.556C670.375 528.556 666.504 525.012 663.707 517.924C660.91 510.836 659.512 501.635 659.512 490.321C659.512 472.374 662.309 452.671 667.903 431.213C668.423 429.522 667.903 428.677 666.342 428.677C665.301 428.677 664.13 429.197 662.829 430.238C656.584 435.7 650.015 444.738 643.119 457.353C636.224 469.968 630.825 481.25 626.923 491.199C623.02 501.148 621.068 506.935 621.068 508.56C621.068 510.186 620.157 510.999 618.336 510.999C614.173 510.999 612.091 505.862 612.091 495.588C612.091 476.21 614.075 458.654 618.043 442.918C622.011 427.182 626.792 419.313 632.387 419.313C634.728 419.313 635.899 420.744 635.899 423.605C629.915 442.983 625.622 462.685 623.02 482.713ZM748.107 419.704C757.995 419.704 762.938 425.491 762.938 437.065C762.938 443.698 760.727 450.656 756.303 457.938C748.758 470.033 738.74 476.08 726.251 476.08C724.3 476.08 722.673 475.755 721.373 475.105C720.072 474.455 719.096 473.479 718.445 472.179C727.682 472.179 736.138 466.847 743.814 456.183C750.059 447.599 753.181 439.731 753.181 432.579C753.181 427.247 751.035 424.58 746.741 424.58C738.155 424.58 730.154 431.278 722.739 444.673C714.803 459.239 710.835 474.195 710.835 489.541C710.835 502.546 714.542 510.349 721.958 512.95C723.389 513.47 725.21 513.73 727.422 513.73C729.634 513.73 731.975 513.177 734.447 512.072C736.919 510.966 739.001 509.633 740.692 508.073C744.074 504.951 746.871 501.505 749.083 497.734C749.603 496.693 750.579 496.173 752.01 496.173C754.352 496.173 755.458 496.563 755.328 497.344C754.937 498.774 753.474 501.18 750.937 504.561C748.4 507.943 746.058 510.641 743.912 512.657C741.765 514.673 738.968 516.493 735.52 518.119C732.073 519.745 728.593 520.558 725.08 520.558C711.29 520.558 702.508 514.055 698.736 501.05C697.565 496.628 696.979 492.077 696.979 487.395C696.979 478.681 698.996 469.188 703.029 458.914C709.404 443.308 718.185 432.058 729.373 425.166C735.488 421.524 741.733 419.704 748.107 419.704Z" fill="#003231"/>
</g>
</g>
</g>
</g>
<g clip-path="url(#clip7_3_35)">
<g clip-path="url(#clip8_3_35)">
<path d="M871.282 565.6C871.23 571.939 876.315 577.097 882.64 577.149C888.976 577.201 894.138 572.125 894.19 565.797L896.073 341.084C896.165 329.973 888.939 328.728 883.881 328.688C878.804 328.646 869.417 342.889 867.288 356.03C865.14 369.16 852.436 436.875 872.57 450.205L871.282 565.6Z" fill="#CDD6BB"/>
<path d="M817.617 565.155L819.154 420.409C810.913 420.342 806.86 410.531 805.463 403.432L810.451 328.584L817.199 389L823.522 328.688L830.263 389.11L838.032 328.81L843.33 389.219L851.088 328.919L854.811 403.845C853.314 410.919 849.679 420.663 841.418 420.596L840.54 565.344C840.488 571.678 835.304 576.754 828.98 576.699C822.655 576.647 817.567 571.489 817.617 565.155Z" fill="#CDD6BB"/>
</g>
</g>
</g>
</g>
</g>
<path d="M624.258 0C874.457 0 1077.29 202.757 1077.29 452.866C1077.29 702.976 874.457 905.733 624.258 905.733C424.977 905.733 255.752 777.109 195.121 598.381H203.701C263.999 772.551 429.515 897.624 624.258 897.624C869.978 897.624 1069.17 698.499 1069.17 452.866C1069.17 207.234 869.974 8.10836 624.258 8.10836C429.519 8.10836 263.999 133.182 203.701 307.352H195.121C255.748 128.624 424.977 0 624.258 0Z" fill="#003231"/>
<defs>
<clipPath id="clip0_3_35">
<rect width="895.907" height="248.566" fill="white" transform="translate(0.166351 328.584)"/>
</clipPath>
<clipPath id="clip1_3_35">
<rect width="895.907" height="248.566" fill="white" transform="translate(0.166351 328.584)"/>
</clipPath>
<clipPath id="clip2_3_35">
<rect width="895.907" height="248.566" fill="white" transform="translate(0.166351 328.584)"/>
</clipPath>
<clipPath id="clip3_3_35">
<rect width="762.82" height="179.859" fill="white" transform="translate(0.166351 362.937)"/>
</clipPath>
<clipPath id="clip4_3_35">
<rect width="762.82" height="179.859" fill="white" transform="translate(0.166351 362.937)"/>
</clipPath>
<clipPath id="clip5_3_35">
<rect width="762.82" height="179.859" fill="white" transform="translate(0.166351 362.937)"/>
</clipPath>
<clipPath id="clip6_3_35">
<rect width="762.82" height="179.859" fill="white" transform="translate(0.166351 362.937)"/>
</clipPath>
<clipPath id="clip7_3_35">
<rect width="90.6112" height="248.566" fill="white" transform="translate(805.463 328.584)"/>
</clipPath>
<clipPath id="clip8_3_35">
<rect width="90.6112" height="248.566" fill="white" transform="translate(805.463 328.584)"/>
</clipPath>
</defs>
</svg>
